<svg xmlns="http://www.w3.org/2000/svg" xmlns:xlink="http://www.w3.org/1999/xlink" width="500" zoomAndPan="magnify" viewBox="0 0 375 374.999991" height="500" preserveAspectRatio="xMidYMid meet" version="1.0"><defs><clipPath id="ad6617a876"><path d="M 81 240 L 188 240 L 188 345.734375 L 81 345.734375 Z M 81 240 " clip-rule="nonzero"/></clipPath><clipPath id="212fe76ef5"><path d="M 81 29.238281 L 188 29.238281 L 188 135 L 81 135 Z M 81 29.238281 " clip-rule="nonzero"/></clipPath><clipPath id="c4adaab9c4"><path d="M 187 29.238281 L 293 29.238281 L 293 135 L 187 135 Z M 187 29.238281 " clip-rule="nonzero"/></clipPath></defs><path fill="#19bcfe" d="M 292.988281 187.488281 C 292.988281 189.214844 292.902344 190.9375 292.730469 192.65625 C 292.5625 194.375 292.308594 196.082031 291.972656 197.777344 C 291.636719 199.472656 291.214844 201.144531 290.714844 202.796875 C 290.214844 204.453125 289.632812 206.078125 288.972656 207.671875 C 288.308594 209.269531 287.570312 210.828125 286.757812 212.351562 C 285.941406 213.875 285.054688 215.355469 284.097656 216.792969 C 283.136719 218.230469 282.109375 219.613281 281.011719 220.949219 C 279.917969 222.285156 278.757812 223.566406 277.535156 224.785156 C 276.316406 226.007812 275.035156 227.167969 273.699219 228.261719 C 272.363281 229.359375 270.980469 230.386719 269.542969 231.347656 C 268.105469 232.304688 266.625 233.191406 265.101562 234.007812 C 263.578125 234.820312 262.019531 235.558594 260.421875 236.222656 C 258.828125 236.882812 257.203125 237.464844 255.550781 237.964844 C 253.894531 238.464844 252.222656 238.886719 250.527344 239.222656 C 248.832031 239.558594 247.125 239.8125 245.40625 239.980469 C 243.6875 240.152344 241.964844 240.238281 240.238281 240.238281 C 238.507812 240.238281 236.785156 240.152344 235.066406 239.980469 C 233.347656 239.8125 231.640625 239.558594 229.945312 239.222656 C 228.25 238.886719 226.578125 238.464844 224.925781 237.964844 C 223.269531 237.464844 221.644531 236.882812 220.050781 236.222656 C 218.453125 235.558594 216.894531 234.820312 215.371094 234.007812 C 213.847656 233.191406 212.367188 232.304688 210.929688 231.347656 C 209.492188 230.386719 208.109375 229.359375 206.773438 228.261719 C 205.4375 227.167969 204.15625 226.007812 202.9375 224.785156 C 201.714844 223.566406 200.554688 222.285156 199.460938 220.949219 C 198.363281 219.613281 197.335938 218.230469 196.375 216.792969 C 195.417969 215.355469 194.53125 213.875 193.714844 212.351562 C 192.902344 210.828125 192.164062 209.269531 191.5 207.671875 C 190.839844 206.078125 190.257812 204.453125 189.757812 202.800781 C 189.257812 201.144531 188.835938 199.472656 188.5 197.777344 C 188.164062 196.082031 187.910156 194.375 187.742188 192.65625 C 187.570312 190.9375 187.488281 189.214844 187.488281 187.488281 C 187.488281 185.757812 187.570312 184.035156 187.742188 182.316406 C 187.910156 180.597656 188.164062 178.890625 188.5 177.195312 C 188.835938 175.5 189.257812 173.828125 189.757812 172.171875 C 190.257812 170.519531 190.839844 168.894531 191.5 167.300781 C 192.164062 165.703125 192.902344 164.144531 193.714844 162.621094 C 194.53125 161.097656 195.417969 159.617188 196.375 158.179688 C 197.335938 156.742188 198.363281 155.359375 199.460938 154.023438 C 200.554688 152.6875 201.714844 151.40625 202.9375 150.1875 C 204.15625 148.964844 205.4375 147.804688 206.773438 146.710938 C 208.109375 145.613281 209.492188 144.585938 210.929688 143.625 C 212.367188 142.667969 213.847656 141.78125 215.371094 140.964844 C 216.894531 140.152344 218.453125 139.414062 220.050781 138.75 C 221.644531 138.089844 223.269531 137.507812 224.925781 137.007812 C 226.578125 136.507812 228.25 136.085938 229.945312 135.75 C 231.640625 135.414062 233.347656 135.160156 235.066406 134.992188 C 236.785156 134.820312 238.507812 134.738281 240.238281 134.738281 C 241.964844 134.738281 243.6875 134.820312 245.40625 134.992188 C 247.125 135.160156 248.832031 135.414062 250.527344 135.75 C 252.222656 136.085938 253.894531 136.507812 255.550781 137.007812 C 257.203125 137.507812 258.828125 138.089844 260.421875 138.75 C 262.019531 139.414062 263.578125 140.152344 265.101562 140.964844 C 266.625 141.78125 268.105469 142.667969 269.542969 143.625 C 270.980469 144.585938 272.363281 145.613281 273.699219 146.710938 C 275.035156 147.804688 276.316406 148.964844 277.535156 150.1875 C 278.757812 151.40625 279.917969 152.6875 281.011719 154.023438 C 282.109375 155.359375 283.136719 156.742188 284.097656 158.179688 C 285.054688 159.617188 285.941406 161.097656 286.757812 162.621094 C 287.570312 164.144531 288.308594 165.703125 288.972656 167.300781 C 289.632812 168.894531 290.214844 170.519531 290.714844 172.171875 C 291.214844 173.828125 291.636719 175.5 291.972656 177.195312 C 292.308594 178.890625 292.5625 180.597656 292.730469 182.316406 C 292.902344 184.035156 292.988281 185.757812 292.988281 187.488281 Z M 292.988281 187.488281 " fill-opacity="1" fill-rule="nonzero"/><g clip-path="url(#ad6617a876)"><path fill="#09cf83" d="M 134.738281 345.738281 C 163.871094 345.738281 187.488281 322.121094 187.488281 292.988281 C 187.488281 285.035156 187.488281 267.449219 187.488281 240.238281 C 163.789062 240.238281 146.207031 240.238281 134.738281 240.238281 C 105.601562 240.238281 81.988281 263.851562 81.988281 292.988281 C 81.988281 322.121094 105.601562 345.738281 134.738281 345.738281 Z M 134.738281 345.738281 " fill-opacity="1" fill-rule="evenodd"/></g><path fill="#a259ff" d="M 134.738281 240.238281 C 144.449219 240.238281 162.03125 240.238281 187.488281 240.238281 L 187.488281 134.738281 C 162.03125 134.738281 144.449219 134.738281 134.738281 134.738281 C 105.601562 134.738281 81.988281 158.351562 81.988281 187.488281 C 81.988281 216.621094 105.601562 240.238281 134.738281 240.238281 Z M 134.738281 240.238281 " fill-opacity="1" fill-rule="evenodd"/><g clip-path="url(#212fe76ef5)"><path fill="#f24e1e" d="M 134.738281 134.738281 C 144.449219 134.738281 162.03125 134.738281 187.488281 134.738281 L 187.488281 29.238281 C 162.03125 29.238281 144.449219 29.238281 134.738281 29.238281 C 105.601562 29.238281 81.988281 52.851562 81.988281 81.988281 C 81.988281 111.121094 105.601562 134.738281 134.738281 134.738281 Z M 134.738281 134.738281 " fill-opacity="1" fill-rule="evenodd"/></g><g clip-path="url(#c4adaab9c4)"><path fill="#ff7262" d="M 240.238281 134.738281 L 187.488281 134.738281 L 187.488281 29.238281 L 240.238281 29.238281 C 269.371094 29.238281 292.988281 52.851562 292.988281 81.988281 C 292.988281 111.121094 269.371094 134.738281 240.238281 134.738281 Z M 240.238281 134.738281 " fill-opacity="1" fill-rule="evenodd"/></g></svg>