<svg xmlns="http://www.w3.org/2000/svg" xmlns:xlink="http://www.w3.org/1999/xlink" width="500" zoomAndPan="magnify" viewBox="0 0 375 374.999991" height="500" preserveAspectRatio="xMidYMid meet" version="1.0"><defs><clipPath id="7360dd577b"><path d="M 11.25 14.847656 L 363 14.847656 L 363 359.847656 L 11.25 359.847656 Z M 11.25 14.847656 " clip-rule="nonzero"/></clipPath></defs><g clip-path="url(#7360dd577b)"><path fill="#ffffff" d="M 186.976562 14.847656 C 89.804688 14.847656 11.253906 93.910156 11.253906 191.722656 C 11.253906 269.90625 61.582031 336.089844 131.40625 359.515625 C 140.136719 361.273438 143.335938 355.707031 143.335938 351.027344 C 143.335938 346.925781 143.046875 332.871094 143.046875 318.226562 C 94.164062 328.769531 83.984375 297.140625 83.984375 297.140625 C 76.128906 276.640625 64.488281 271.375 64.488281 271.375 C 48.492188 260.539062 65.65625 260.539062 65.65625 260.539062 C 83.402344 261.710938 92.714844 278.695312 92.714844 278.695312 C 108.421875 305.632812 133.734375 298.019531 143.917969 293.335938 C 145.371094 281.914062 150.027344 274.007812 154.972656 269.617188 C 115.988281 265.515625 74.96875 250.289062 74.96875 182.347656 C 74.96875 163.023438 81.945312 147.210938 93.003906 134.910156 C 91.257812 130.519531 85.148438 112.359375 94.75 88.054688 C 94.75 88.054688 109.589844 83.371094 143.042969 106.210938 C 157.429688 102.324219 172.074219 100.371094 186.976562 100.355469 C 201.8125 100.355469 216.9375 102.40625 230.90625 106.210938 C 264.363281 83.371094 279.203125 88.054688 279.203125 88.054688 C 288.804688 112.359375 282.691406 130.519531 280.945312 134.910156 C 292.292969 147.210938 298.984375 163.023438 298.984375 182.347656 C 298.984375 250.289062 257.964844 265.222656 218.6875 269.617188 C 225.089844 275.179688 230.613281 285.71875 230.613281 302.414062 C 230.613281 326.132812 230.328125 345.167969 230.328125 351.023438 C 230.328125 355.707031 233.527344 361.273438 242.253906 359.519531 C 312.078125 336.085938 362.410156 269.90625 362.410156 191.722656 C 362.695312 93.910156 283.855469 14.847656 186.976562 14.847656 Z M 186.976562 14.847656 " fill-opacity="1" fill-rule="evenodd"/></g></svg>