<svg xmlns="http://www.w3.org/2000/svg" xmlns:xlink="http://www.w3.org/1999/xlink" width="500" zoomAndPan="magnify" viewBox="0 0 375 374.999991" height="500" preserveAspectRatio="xMidYMid meet" version="1.0"><defs><clipPath id="0e0ce6cd89"><path d="M 28.953125 28.953125 L 346.203125 28.953125 L 346.203125 346.203125 L 28.953125 346.203125 Z M 28.953125 28.953125 " clip-rule="nonzero"/></clipPath></defs><g clip-path="url(#0e0ce6cd89)"><path fill="#000000" d="M 187.578125 28.957031 C 275.1875 28.957031 346.203125 101.761719 346.203125 191.59375 C 346.203125 263.441406 300.804688 324.378906 237.816406 345.90625 C 229.773438 347.507812 226.917969 342.433594 226.917969 338.097656 C 226.917969 332.738281 227.109375 315.226562 227.109375 293.460938 C 227.109375 278.304688 222.03125 268.40625 216.335938 263.355469 C 251.664062 259.328125 288.78125 245.574219 288.78125 183.105469 C 288.78125 165.34375 282.628906 150.847656 272.445312 139.453125 C 274.09375 135.347656 279.535156 118.804688 270.890625 96.40625 C 270.890625 96.40625 257.597656 92.042969 227.316406 113.078125 C 214.640625 109.480469 201.0625 107.664062 187.578125 107.605469 C 174.097656 107.664062 160.535156 109.480469 147.875 113.078125 C 117.5625 92.042969 104.238281 96.40625 104.238281 96.40625 C 95.625 118.804688 101.066406 135.347656 102.699219 139.453125 C 92.5625 150.847656 86.359375 165.34375 86.359375 183.105469 C 86.359375 245.417969 123.398438 259.375 158.628906 263.488281 C 154.09375 267.546875 149.984375 274.71875 148.558594 285.230469 C 139.515625 289.386719 116.546875 296.574219 102.398438 271.71875 C 102.398438 271.71875 94.007812 256.089844 78.082031 254.953125 C 78.082031 254.953125 62.613281 254.742188 77 264.835938 C 77 264.835938 87.390625 269.832031 94.609375 288.628906 C 94.609375 288.628906 103.921875 317.65625 148.050781 307.820312 C 148.128906 321.414062 148.273438 334.234375 148.273438 338.097656 C 148.273438 342.398438 145.351562 347.429688 137.4375 345.921875 C 74.398438 324.429688 28.953125 263.457031 28.953125 191.59375 C 28.953125 101.761719 99.984375 28.957031 187.578125 28.957031 " fill-opacity="1" fill-rule="evenodd"/></g></svg>