<svg xmlns="http://www.w3.org/2000/svg" xmlns:xlink="http://www.w3.org/1999/xlink" width="500" zoomAndPan="magnify" viewBox="0 0 375 374.999991" height="500" preserveAspectRatio="xMidYMid meet" version="1.0"><defs><clipPath id="afc556bc13"><path d="M 26.683594 5 L 348.433594 5 L 348.433594 370 L 26.683594 370 Z M 26.683594 5 " clip-rule="nonzero"/></clipPath></defs><g clip-path="url(#afc556bc13)"><path fill="#e44d26" d="M 55.894531 333.28125 L 26.59375 5.027344 L 348.527344 5.027344 L 319.203125 333.234375 L 187.355469 369.730469 Z M 55.894531 333.28125 " fill-opacity="1" fill-rule="nonzero"/></g><path fill="#f16529" d="M 294.089844 312.332031 L 319.15625 31.867188 L 187.558594 31.867188 L 187.558594 341.839844 Z M 294.089844 312.332031 " fill-opacity="1" fill-rule="nonzero"/><path fill="#ebebeb" d="M 187.421875 72.121094 L 86.492188 72.121094 L 97.367188 193.867188 L 187.558594 193.867188 L 187.558594 153.613281 L 134.230469 153.613281 L 130.546875 112.390625 L 187.558594 112.390625 L 187.558594 72.121094 Z M 187.558594 258.035156 L 187.386719 258.082031 L 142.503906 245.976562 L 139.652344 213.871094 L 99.167969 213.871094 L 104.816406 277.082031 L 187.378906 299.875 L 187.558594 299.820312 Z M 187.558594 258.035156 " fill-opacity="1" fill-rule="nonzero"/><path fill="#ffffff" d="M 187.421875 193.867188 L 237.054688 193.867188 L 232.492188 246.070312 L 187.535156 258.183594 L 187.535156 300.070312 L 270.164062 277.195312 L 281.230469 153.589844 L 187.558594 153.589844 Z M 287.417969 82.925781 L 288.375 72.121094 L 187.398438 72.121094 L 187.398438 112.378906 L 284.746094 112.378906 L 285.546875 103.328125 Z M 287.417969 82.925781 " fill-opacity="1" fill-rule="nonzero"/></svg>