<svg xmlns="http://www.w3.org/2000/svg" xmlns:xlink="http://www.w3.org/1999/xlink" width="500" zoomAndPan="magnify" viewBox="0 0 375 374.999991" height="500" preserveAspectRatio="xMidYMid meet" version="1.0"><defs><clipPath id="3def4680d3"><path d="M 13.828125 13.828125 L 361.078125 13.828125 L 361.078125 361.078125 L 13.828125 361.078125 Z M 13.828125 13.828125 " clip-rule="nonzero"/></clipPath><clipPath id="6a4f78b785"><path d="M 13.828125 88.828125 L 13.828125 286.171875 C 13.828125 327.59375 47.40625 361.171875 88.828125 361.171875 L 286.171875 361.171875 C 327.59375 361.171875 361.171875 327.59375 361.171875 286.171875 L 361.171875 88.828125 C 361.171875 47.40625 327.59375 13.828125 286.171875 13.828125 L 88.828125 13.828125 C 47.40625 13.828125 13.828125 47.40625 13.828125 88.828125 Z M 13.828125 88.828125 " clip-rule="nonzero"/></clipPath><clipPath id="7849e96f1e"><path d="M 105 173 L 203 173 L 203 334 L 105 334 Z M 105 173 " clip-rule="nonzero"/></clipPath><clipPath id="d7863b0b61"><path d="M 13.828125 88.828125 L 13.828125 286.171875 C 13.828125 327.59375 47.40625 361.171875 88.828125 361.171875 L 286.171875 361.171875 C 327.59375 361.171875 361.171875 327.59375 361.171875 286.171875 L 361.171875 88.828125 C 361.171875 47.40625 327.59375 13.828125 286.171875 13.828125 L 88.828125 13.828125 C 47.40625 13.828125 13.828125 47.40625 13.828125 88.828125 Z M 13.828125 88.828125 " clip-rule="nonzero"/></clipPath><clipPath id="482b4057f4"><path d="M 220 171 L 335 171 L 335 334 L 220 334 Z M 220 171 " clip-rule="nonzero"/></clipPath><clipPath id="5e5f099925"><path d="M 13.828125 88.828125 L 13.828125 286.171875 C 13.828125 327.59375 47.40625 361.171875 88.828125 361.171875 L 286.171875 361.171875 C 327.59375 361.171875 361.171875 327.59375 361.171875 286.171875 L 361.171875 88.828125 C 361.171875 47.40625 327.59375 13.828125 286.171875 13.828125 L 88.828125 13.828125 C 47.40625 13.828125 13.828125 47.40625 13.828125 88.828125 Z M 13.828125 88.828125 " clip-rule="nonzero"/></clipPath></defs><g clip-path="url(#3def4680d3)"><g clip-path="url(#6a4f78b785)"><path fill="#f7df1e" d="M 13.828125 13.828125 L 361.078125 13.828125 L 361.078125 361.078125 L 13.828125 361.078125 Z M 13.828125 13.828125 " fill-opacity="1" fill-rule="nonzero"/></g></g><g clip-path="url(#7849e96f1e)"><g clip-path="url(#d7863b0b61)"><path fill="#000000" d="M 105.132812 304.015625 L 131.707031 287.933594 C 136.835938 297.023438 141.496094 304.714844 152.683594 304.714844 C 163.40625 304.714844 170.167969 300.519531 170.167969 284.203125 L 170.167969 173.25 L 202.800781 173.25 L 202.800781 284.667969 C 202.800781 318.464844 182.988281 333.847656 154.082031 333.847656 C 127.976562 333.847656 112.824219 320.328125 105.132812 304.011719 " fill-opacity="1" fill-rule="nonzero"/></g></g><g clip-path="url(#482b4057f4)"><g clip-path="url(#5e5f099925)"><path fill="#000000" d="M 220.527344 300.519531 L 247.097656 285.136719 C 254.089844 296.558594 263.179688 304.949219 279.265625 304.949219 C 292.785156 304.949219 301.40625 298.1875 301.40625 288.863281 C 301.40625 277.675781 292.550781 273.714844 277.632812 267.1875 L 269.476562 263.691406 C 245.933594 253.667969 230.3125 241.082031 230.3125 214.507812 C 230.3125 190.03125 248.960938 171.382812 278.097656 171.382812 C 298.84375 171.382812 313.761719 178.609375 324.484375 197.492188 L 299.078125 213.808594 C 293.480469 203.785156 287.421875 199.824219 278.101562 199.824219 C 268.542969 199.824219 262.480469 205.882812 262.480469 213.808594 C 262.480469 223.597656 268.542969 227.5625 282.527344 233.621094 L 290.683594 237.117188 C 318.421875 249.007812 334.042969 261.128906 334.042969 288.398438 C 334.042969 317.769531 310.964844 333.851562 279.964844 333.851562 C 249.660156 333.851562 230.082031 319.402344 220.527344 300.519531 " fill-opacity="1" fill-rule="nonzero"/></g></g></svg>