<svg xmlns="http://www.w3.org/2000/svg" xmlns:xlink="http://www.w3.org/1999/xlink" width="500" zoomAndPan="magnify" viewBox="0 0 375 374.999991" height="500" preserveAspectRatio="xMidYMid meet" version="1.0"><path fill="#5d87a1" d="M 90.117188 274.320312 L 76.53125 274.320312 C 76.050781 251.390625 74.726562 229.835938 72.566406 209.636719 L 72.445312 209.636719 L 51.761719 274.320312 L 41.421875 274.320312 L 20.863281 209.636719 L 20.746094 209.636719 C 19.21875 229.03125 18.257812 250.589844 17.859375 274.320312 L 5.480469 274.320312 C 6.277344 245.464844 8.28125 218.414062 11.488281 193.160156 L 28.324219 193.160156 L 47.917969 252.796875 L 48.039062 252.796875 L 67.753906 193.160156 L 83.863281 193.160156 C 87.390625 222.738281 89.476562 249.792969 90.117188 274.320312 M 149.027344 214.441406 C 143.496094 244.453125 136.199219 266.261719 127.140625 279.875 C 120.085938 290.351562 112.355469 295.597656 103.9375 295.597656 C 101.695312 295.597656 98.925781 294.921875 95.644531 293.578125 L 95.644531 286.339844 C 97.246094 286.570312 99.128906 286.703125 101.292969 286.703125 C 105.222656 286.703125 108.386719 285.621094 110.792969 283.453125 C 113.675781 280.8125 115.117188 277.84375 115.117188 274.558594 C 115.117188 272.308594 113.996094 267.703125 111.753906 260.730469 L 96.847656 214.4375 L 110.191406 214.4375 L 120.890625 249.0625 C 123.292969 256.921875 124.296875 262.410156 123.894531 265.539062 C 129.746094 249.910156 133.832031 232.875 136.160156 214.4375 L 149.027344 214.4375 Z M 149.027344 214.441406 " fill-opacity="1" fill-rule="nonzero"/><path fill="#f8981d" d="M 329.839844 274.320312 L 291.253906 274.320312 L 291.253906 193.160156 L 304.234375 193.160156 L 304.234375 264.332031 L 329.839844 264.332031 Z M 281.15625 276.28125 L 266.234375 268.917969 C 267.558594 267.832031 268.824219 266.65625 269.960938 265.292969 C 276.304688 257.84375 279.46875 246.828125 279.46875 232.234375 C 279.46875 205.386719 268.929688 191.953125 247.851562 191.953125 C 237.511719 191.953125 229.449219 195.363281 223.683594 202.179688 C 217.347656 209.632812 214.183594 220.609375 214.183594 235.125 C 214.183594 249.390625 216.988281 259.855469 222.597656 266.492188 C 227.726562 272.507812 235.464844 275.515625 245.808594 275.515625 C 249.667969 275.515625 253.207031 275.046875 256.433594 274.09375 L 275.859375 285.398438 Z M 232.824219 258.082031 C 229.535156 252.792969 227.894531 244.304688 227.894531 232.601562 C 227.894531 212.164062 234.101562 201.9375 246.53125 201.9375 C 253.027344 201.9375 257.789062 204.382812 260.832031 209.265625 C 264.113281 214.558594 265.765625 222.972656 265.765625 234.515625 C 265.765625 255.117188 259.550781 265.417969 247.132812 265.417969 C 240.632812 265.421875 235.871094 262.984375 232.824219 258.082031 M 208.527344 251.824219 C 208.527344 258.707031 206 264.355469 200.957031 268.777344 C 195.90625 273.179688 189.132812 275.390625 180.648438 275.390625 C 172.710938 275.390625 165.015625 272.851562 157.566406 267.808594 L 161.054688 260.839844 C 167.464844 264.050781 173.265625 265.644531 178.476562 265.644531 C 183.367188 265.644531 187.1875 264.5625 189.960938 262.410156 C 192.730469 260.253906 194.382812 257.226562 194.382812 253.398438 C 194.382812 248.578125 191.019531 244.457031 184.851562 241.003906 C 179.164062 237.882812 167.785156 231.351562 167.785156 231.351562 C 161.621094 226.855469 158.535156 222.03125 158.535156 214.085938 C 158.535156 207.507812 160.835938 202.195312 165.441406 198.15625 C 170.054688 194.101562 176.003906 192.082031 183.300781 192.082031 C 190.832031 192.082031 197.679688 194.097656 203.847656 198.09375 L 200.71875 205.066406 C 195.445312 202.824219 190.238281 201.703125 185.101562 201.703125 C 180.9375 201.703125 177.726562 202.703125 175.492188 204.710938 C 173.242188 206.710938 171.851562 209.269531 171.851562 212.410156 C 171.851562 217.207031 175.285156 221.382812 181.621094 224.902344 C 187.386719 228.03125 199.046875 234.675781 199.046875 234.675781 C 205.367188 239.160156 208.527344 243.941406 208.527344 251.824219 " fill-opacity="1" fill-rule="nonzero"/><path fill="#5d87a1" d="M 346.136719 165.976562 C 338.289062 165.777344 332.210938 166.570312 327.113281 168.726562 C 325.640625 169.316406 323.296875 169.316406 323.09375 171.175781 C 323.886719 171.964844 323.980469 173.234375 324.671875 174.320312 C 325.847656 176.28125 327.894531 178.917969 329.769531 180.292969 C 331.824219 181.871094 333.886719 183.429688 336.050781 184.800781 C 339.863281 187.160156 344.1875 188.535156 347.902344 190.886719 C 350.070312 192.253906 352.222656 194.023438 354.390625 195.496094 C 355.453125 196.28125 356.136719 197.554688 357.519531 198.042969 L 357.519531 197.746094 C 356.828125 196.863281 356.632812 195.585938 355.949219 194.605469 L 353.007812 191.765625 C 350.160156 187.945312 346.625 184.605469 342.8125 181.867188 C 339.671875 179.703125 332.804688 176.765625 331.53125 173.148438 L 331.332031 172.949219 C 333.488281 172.746094 336.050781 171.964844 338.097656 171.363281 C 341.433594 170.484375 344.476562 170.683594 347.902344 169.804688 C 349.476562 169.410156 351.039062 168.914062 352.617188 168.429688 L 352.617188 167.546875 C 350.84375 165.777344 349.578125 163.433594 347.710938 161.761719 C 342.71875 157.449219 337.21875 153.230469 331.53125 149.703125 C 328.488281 147.734375 324.570312 146.46875 321.328125 144.796875 C 320.160156 144.207031 318.191406 143.917969 317.503906 142.933594 C 315.746094 140.777344 314.757812 137.9375 313.480469 135.382812 C 310.644531 129.992188 307.890625 124.015625 305.445312 118.316406 C 303.675781 114.492188 302.601562 110.675781 300.441406 107.140625 C 290.335938 90.472656 279.363281 80.378906 262.496094 70.46875 C 258.871094 68.40625 254.558594 67.527344 249.949219 66.445312 L 242.59375 66.058594 C 241.023438 65.367188 239.449219 63.503906 238.082031 62.621094 C 232.484375 59.09375 218.074219 51.445312 213.960938 61.542969 C 211.308594 67.921875 217.882812 74.195312 220.140625 77.433594 C 221.804688 79.679688 223.964844 82.238281 225.132812 84.789062 C 225.820312 86.453125 226.015625 88.222656 226.707031 89.984375 C 228.277344 94.300781 229.742188 99.101562 231.808594 103.128906 C 232.882812 105.179688 234.054688 107.339844 235.433594 109.195312 C 236.21875 110.285156 237.589844 110.765625 237.890625 112.535156 C 236.519531 114.488281 236.414062 117.4375 235.628906 119.886719 C 232.101562 130.96875 233.480469 144.691406 238.480469 152.835938 C 240.042969 155.289062 243.777344 160.683594 248.769531 158.617188 C 253.1875 156.851562 252.210938 151.261719 253.480469 146.363281 C 253.773438 145.179688 253.582031 144.402344 254.167969 143.625 L 254.167969 143.816406 C 255.535156 146.558594 256.917969 149.203125 258.183594 151.953125 C 261.226562 156.753906 266.523438 161.757812 270.9375 165.082031 C 273.285156 166.859375 275.144531 169.890625 278.089844 170.976562 L 278.089844 170.683594 L 277.894531 170.683594 C 277.300781 169.804688 276.425781 169.410156 275.644531 168.726562 C 273.875 166.960938 271.917969 164.800781 270.546875 162.84375 C 266.433594 157.351562 262.796875 151.269531 259.566406 144.992188 C 257.988281 141.949219 256.625 138.617188 255.351562 135.578125 C 254.757812 134.40625 254.757812 132.636719 253.773438 132.046875 C 252.300781 134.203125 250.148438 136.066406 249.074219 138.707031 C 247.207031 142.933594 247.011719 148.125 246.320312 153.527344 L 245.933594 153.71875 C 242.808594 152.933594 241.722656 149.703125 240.539062 146.957031 C 237.601562 139.992188 237.105469 128.808594 239.65625 120.773438 C 240.335938 118.71875 243.289062 112.246094 242.113281 110.285156 C 241.523438 108.410156 239.558594 107.339844 238.480469 105.863281 C 237.214844 104.003906 235.832031 101.652344 234.949219 99.589844 C 232.597656 94.101562 231.414062 88.019531 228.878906 82.53125 C 227.695312 79.976562 225.640625 77.332031 223.976562 74.976562 C 222.109375 72.332031 220.050781 70.464844 218.574219 67.328125 C 218.085938 66.25 217.402344 64.488281 218.1875 63.3125 C 218.378906 62.527344 218.777344 62.230469 219.558594 62.035156 C 220.828125 60.960938 224.460938 62.328125 225.734375 62.917969 C 229.367188 64.386719 232.40625 65.761719 235.441406 67.816406 C 236.816406 68.800781 238.289062 70.667969 240.050781 71.15625 L 242.113281 71.15625 C 245.242188 71.839844 248.773438 71.347656 251.722656 72.234375 C 256.917969 73.902344 261.621094 76.351562 265.84375 78.996094 C 278.6875 87.140625 289.277344 98.714844 296.429688 112.535156 C 297.601562 114.789062 298.101562 116.851562 299.171875 119.199219 C 301.238281 124.007812 303.792969 128.914062 305.84375 133.617188 C 307.902344 138.226562 309.867188 142.929688 312.808594 146.757812 C 314.277344 148.8125 320.171875 149.894531 322.8125 150.972656 C 324.769531 151.851562 327.816406 152.632812 329.578125 153.710938 C 332.914062 155.765625 336.238281 158.128906 339.375 160.386719 C 340.9375 161.5625 345.84375 164.015625 346.136719 165.976562 M 246.113281 80.765625 C 244.753906 80.75 243.414062 80.914062 242.097656 81.257812 L 242.097656 81.453125 L 242.289062 81.453125 C 243.078125 83.019531 244.449219 84.109375 245.429688 85.476562 C 246.21875 87.046875 246.90625 88.605469 247.679688 90.175781 L 247.867188 89.984375 C 249.253906 89.003906 249.941406 87.433594 249.941406 85.078125 C 249.34375 84.386719 249.253906 83.710938 248.757812 83.019531 C 248.179688 82.039062 246.90625 81.550781 246.113281 80.765625 " fill-opacity="1" fill-rule="nonzero"/><path fill="#f8981d" d="M 355.476562 274.308594 L 357.507812 274.308594 L 357.507812 264.363281 L 354.460938 264.363281 L 351.972656 271.148438 L 349.273438 264.363281 L 346.339844 264.363281 L 346.339844 274.308594 L 348.257812 274.308594 L 348.257812 266.742188 L 348.363281 266.742188 L 351.195312 274.308594 L 352.65625 274.308594 L 355.476562 266.742188 Z M 339.109375 274.308594 L 341.257812 274.308594 L 341.257812 266.050781 L 344.074219 266.050781 L 344.074219 264.363281 L 336.179688 264.363281 L 336.179688 266.050781 L 339.105469 266.050781 Z M 339.109375 274.308594 " fill-opacity="1" fill-rule="nonzero"/></svg>