<svg xmlns="http://www.w3.org/2000/svg" xmlns:xlink="http://www.w3.org/1999/xlink" width="500" zoomAndPan="magnify" viewBox="0 0 375 374.999991" height="500" preserveAspectRatio="xMidYMid meet" version="1.0"><defs><clipPath id="d991a9e3e1"><path d="M 30.367188 30.367188 L 344.617188 30.367188 L 344.617188 344.617188 L 30.367188 344.617188 Z M 30.367188 30.367188 " clip-rule="nonzero"/></clipPath></defs><g clip-path="url(#d991a9e3e1)"><path fill="#ff6c37" d="M 343.332031 207.441406 C 354.328125 121.351562 293.53125 42.648438 207.597656 31.652344 C 121.667969 20.652344 42.648438 81.449219 31.652344 167.382812 C 20.652344 253.3125 81.449219 332.175781 167.382812 343.332031 C 253.472656 354.328125 332.175781 293.53125 343.332031 207.441406 Z M 343.332031 207.441406 " fill-opacity="1" fill-rule="nonzero"/></g><path fill="#ffffff" d="M 244.203125 131.25 L 177.90625 197.542969 L 159.214844 178.851562 C 224.40625 113.65625 230.847656 119.308594 244.203125 131.25 Z M 244.203125 131.25 " fill-opacity="1" fill-rule="nonzero"/><path fill="#ff6c37" d="M 177.90625 199.117188 C 177.4375 199.117188 177.121094 198.957031 176.808594 198.644531 L 157.957031 179.949219 C 157.328125 179.320312 157.328125 178.378906 157.957031 177.75 C 224.25 111.457031 231.164062 117.738281 245.144531 130.308594 C 245.460938 130.621094 245.617188 130.9375 245.617188 131.40625 C 245.617188 131.878906 245.460938 132.191406 245.144531 132.507812 L 178.851562 198.644531 C 178.691406 198.957031 178.222656 199.117188 177.90625 199.117188 Z M 161.414062 178.851562 L 177.90625 195.34375 L 241.847656 131.40625 C 230.21875 121.039062 222.367188 117.898438 161.414062 178.851562 Z M 161.414062 178.851562 " fill-opacity="1" fill-rule="nonzero"/><path fill="#ffffff" d="M 196.917969 216.554688 L 178.851562 198.488281 L 245.144531 132.191406 C 262.898438 150.101562 236.347656 179.164062 196.917969 216.554688 Z M 196.917969 216.554688 " fill-opacity="1" fill-rule="nonzero"/><path fill="#ff6c37" d="M 196.917969 218.125 C 196.445312 218.125 196.128906 217.96875 195.816406 217.652344 L 177.75 199.585938 C 177.4375 199.273438 177.4375 198.957031 177.4375 198.488281 C 177.4375 198.015625 177.59375 197.703125 177.90625 197.386719 L 244.203125 131.09375 C 244.832031 130.464844 245.773438 130.464844 246.402344 131.09375 C 250.484375 134.863281 252.683594 140.203125 252.527344 145.703125 C 252.214844 163.140625 232.421875 185.289062 198.171875 217.652344 C 197.703125 217.96875 197.230469 218.125 196.917969 218.125 Z M 181.050781 198.488281 C 191.105469 208.699219 195.34375 212.78125 196.917969 214.355469 C 223.308594 189.21875 248.914062 163.453125 249.070312 145.703125 C 249.230469 141.617188 247.660156 137.535156 244.988281 134.390625 Z M 181.050781 198.488281 " fill-opacity="1" fill-rule="nonzero"/><path fill="#ffffff" d="M 159.527344 179.320312 L 172.878906 192.675781 C 173.195312 192.988281 173.195312 193.304688 172.878906 193.617188 C 172.722656 193.773438 172.722656 193.773438 172.566406 193.773438 L 144.917969 199.742188 C 143.503906 199.902344 142.246094 198.957031 141.933594 197.542969 C 141.773438 196.757812 142.089844 195.972656 142.5625 195.503906 L 158.585938 179.476562 C 158.898438 179.164062 159.371094 179.007812 159.527344 179.320312 Z M 159.527344 179.320312 " fill-opacity="1" fill-rule="nonzero"/><path fill="#ff6c37" d="M 144.445312 201.316406 C 142.089844 201.316406 140.363281 199.429688 140.363281 197.074219 C 140.363281 195.972656 140.832031 194.875 141.617188 194.089844 L 157.640625 178.066406 C 158.585938 177.277344 159.839844 177.277344 160.785156 178.066406 L 174.136719 191.417969 C 175.078125 192.203125 175.078125 193.617188 174.136719 194.558594 C 173.824219 194.875 173.507812 195.03125 173.039062 195.1875 L 145.386719 201.15625 C 145.074219 201.15625 144.761719 201.316406 144.445312 201.316406 Z M 159.054688 181.050781 L 143.660156 196.445312 C 143.347656 196.757812 143.1875 197.230469 143.503906 197.703125 C 143.660156 198.171875 144.132812 198.328125 144.601562 198.171875 L 170.523438 192.515625 Z M 159.054688 181.050781 " fill-opacity="1" fill-rule="nonzero"/><path fill="#ffffff" d="M 279.234375 94.488281 C 269.179688 84.75 253 85.0625 243.257812 95.273438 C 233.519531 105.484375 233.832031 121.507812 244.046875 131.25 C 252.371094 139.261719 264.9375 140.675781 274.835938 134.707031 L 256.925781 116.796875 Z M 279.234375 94.488281 " fill-opacity="1" fill-rule="nonzero"/><path fill="#ff6c37" d="M 261.640625 139.890625 C 246.714844 139.890625 234.621094 127.792969 234.621094 112.871094 C 234.621094 97.945312 246.714844 85.847656 261.640625 85.847656 C 268.550781 85.847656 275.308594 88.519531 280.335938 93.390625 C 280.648438 93.703125 280.804688 94.019531 280.804688 94.488281 C 280.804688 94.960938 280.648438 95.273438 280.335938 95.589844 L 259.125 116.796875 L 275.777344 133.449219 C 276.40625 134.078125 276.40625 135.019531 275.777344 135.648438 C 275.621094 135.804688 275.621094 135.804688 275.464844 135.960938 C 271.378906 138.476562 266.511719 139.890625 261.640625 139.890625 Z M 261.640625 89.148438 C 248.445312 89.148438 237.761719 99.832031 237.917969 113.027344 C 237.917969 126.222656 248.601562 136.90625 261.796875 136.75 C 265.410156 136.75 269.023438 135.960938 272.324219 134.234375 L 255.828125 117.898438 C 255.511719 117.582031 255.355469 117.269531 255.355469 116.796875 C 255.355469 116.324219 255.511719 116.011719 255.828125 115.695312 L 276.878906 94.644531 C 272.636719 91.03125 267.296875 89.148438 261.640625 89.148438 Z M 261.640625 89.148438 " fill-opacity="1" fill-rule="nonzero"/><path fill="#ffffff" d="M 279.707031 94.960938 L 279.390625 94.644531 L 256.925781 116.796875 L 274.679688 134.546875 C 276.40625 133.449219 278.136719 132.191406 279.550781 130.777344 C 289.601562 120.882812 289.601562 104.859375 279.707031 94.960938 Z M 279.707031 94.960938 " fill-opacity="1" fill-rule="nonzero"/><path fill="#ff6c37" d="M 274.835938 136.277344 C 274.363281 136.277344 274.050781 136.121094 273.738281 135.804688 L 255.828125 117.898438 C 255.511719 117.582031 255.355469 117.269531 255.355469 116.796875 C 255.355469 116.324219 255.511719 116.011719 255.828125 115.695312 L 278.136719 93.390625 C 278.761719 92.761719 279.707031 92.761719 280.335938 93.390625 L 280.804688 93.703125 C 291.332031 104.230469 291.332031 121.195312 280.960938 131.878906 C 279.390625 133.449219 277.664062 134.863281 275.777344 135.960938 C 275.308594 136.121094 274.992188 136.277344 274.835938 136.277344 Z M 259.125 116.796875 L 274.992188 132.664062 C 276.25 131.878906 277.507812 130.777344 278.449219 129.835938 C 287.402344 120.882812 287.875 106.269531 279.234375 96.84375 Z M 259.125 116.796875 " fill-opacity="1" fill-rule="nonzero"/><path fill="#ffffff" d="M 246.871094 134.078125 C 243.101562 130.308594 236.976562 130.308594 233.207031 134.078125 L 173.980469 193.304688 L 183.878906 203.199219 L 246.558594 148.214844 C 250.644531 144.761719 250.957031 138.632812 247.5 134.546875 C 247.1875 134.390625 247.03125 134.234375 246.871094 134.078125 Z M 246.871094 134.078125 " fill-opacity="1" fill-rule="nonzero"/><path fill="#ff6c37" d="M 183.71875 204.769531 C 183.25 204.769531 182.933594 204.613281 182.621094 204.300781 L 172.722656 194.402344 C 172.09375 193.773438 172.09375 192.832031 172.722656 192.203125 L 231.949219 132.976562 C 236.347656 128.578125 243.417969 128.578125 247.816406 132.976562 C 252.214844 137.375 252.214844 144.445312 247.816406 148.84375 C 247.660156 149 247.5 149.160156 247.34375 149.316406 L 184.664062 204.300781 C 184.503906 204.613281 184.191406 204.769531 183.71875 204.769531 Z M 176.179688 193.304688 L 183.878906 201 L 245.460938 146.960938 C 248.914062 144.132812 249.230469 138.949219 246.402344 135.492188 C 243.574219 132.035156 238.390625 131.722656 234.933594 134.546875 C 234.777344 134.707031 234.621094 134.863281 234.304688 135.019531 Z M 176.179688 193.304688 " fill-opacity="1" fill-rule="nonzero"/><path fill="#ffffff" d="M 128.578125 260.699219 C 127.949219 261.011719 127.636719 261.640625 127.792969 262.269531 L 130.464844 273.578125 C 131.09375 275.148438 130.148438 277.035156 128.421875 277.507812 C 127.164062 277.976562 125.75 277.507812 124.964844 276.5625 L 107.683594 259.441406 L 164.082031 203.042969 L 183.5625 203.355469 L 196.757812 216.554688 C 193.617188 219.222656 174.609375 237.605469 128.578125 260.699219 Z M 128.578125 260.699219 " fill-opacity="1" fill-rule="nonzero"/><path fill="#ff6c37" d="M 127.324219 279.078125 C 126.066406 279.078125 124.808594 278.605469 124.023438 277.664062 L 106.898438 260.539062 C 106.585938 260.226562 106.429688 259.910156 106.429688 259.441406 C 106.429688 258.96875 106.585938 258.65625 106.898438 258.339844 L 163.296875 201.941406 C 163.613281 201.628906 164.082031 201.472656 164.398438 201.472656 L 183.878906 201.785156 C 184.347656 201.785156 184.664062 201.941406 184.976562 202.257812 L 198.171875 215.453125 C 198.488281 215.769531 198.644531 216.238281 198.644531 216.710938 C 198.644531 217.179688 198.488281 217.496094 198.015625 217.808594 L 196.917969 218.753906 C 180.265625 233.363281 157.640625 247.972656 129.523438 261.953125 L 132.191406 273.109375 C 132.664062 275.148438 131.722656 277.351562 129.835938 278.449219 C 128.894531 278.921875 128.109375 279.078125 127.324219 279.078125 Z M 110.042969 259.441406 L 126.222656 275.464844 C 126.695312 276.25 127.636719 276.5625 128.421875 276.09375 C 129.207031 275.621094 129.523438 274.679688 129.050781 273.894531 L 126.378906 262.582031 C 126.066406 261.167969 126.695312 259.910156 127.949219 259.285156 C 155.757812 245.300781 178.222656 230.847656 194.714844 216.554688 L 183.089844 204.929688 L 165.027344 204.613281 Z M 110.042969 259.441406 " fill-opacity="1" fill-rule="nonzero"/><path fill="#ffffff" d="M 94.332031 272.949219 L 107.84375 259.441406 L 127.949219 279.550781 L 95.902344 277.351562 C 94.488281 277.191406 93.546875 275.9375 93.703125 274.523438 C 93.703125 273.894531 93.859375 273.265625 94.332031 272.949219 Z M 94.332031 272.949219 " fill-opacity="1" fill-rule="nonzero"/><path fill="#ff6c37" d="M 127.949219 280.960938 L 95.746094 278.761719 C 93.390625 278.605469 91.820312 276.5625 91.976562 274.207031 C 92.132812 273.265625 92.445312 272.324219 93.230469 271.695312 L 106.742188 258.183594 C 107.371094 257.554688 108.3125 257.554688 108.941406 258.183594 L 129.050781 278.292969 C 129.523438 278.761719 129.679688 279.390625 129.363281 280.019531 C 129.050781 280.648438 128.578125 280.960938 127.949219 280.960938 Z M 107.84375 261.640625 L 95.433594 274.050781 C 94.960938 274.363281 94.960938 275.148438 95.433594 275.464844 C 95.589844 275.621094 95.746094 275.777344 96.058594 275.777344 L 123.867188 277.664062 Z M 107.84375 261.640625 " fill-opacity="1" fill-rule="nonzero"/><path fill="#ff6c37" d="M 158.585938 210.269531 C 157.640625 210.269531 157.011719 209.484375 157.011719 208.699219 C 157.011719 208.226562 157.171875 207.914062 157.484375 207.597656 L 172.722656 192.359375 C 173.351562 191.730469 174.292969 191.730469 174.921875 192.359375 L 184.820312 202.257812 C 185.289062 202.730469 185.449219 203.199219 185.289062 203.828125 C 185.132812 204.300781 184.664062 204.769531 184.035156 204.929688 L 158.898438 210.269531 C 158.742188 210.269531 158.585938 210.269531 158.585938 210.269531 Z M 173.824219 195.660156 L 163.453125 206.027344 L 180.421875 202.414062 Z M 173.824219 195.660156 " fill-opacity="1" fill-rule="nonzero"/><path fill="#ffffff" d="M 183.5625 203.355469 L 166.28125 207.128906 C 165.027344 207.441406 163.769531 206.65625 163.453125 205.398438 C 163.296875 204.613281 163.453125 203.828125 164.082031 203.199219 L 173.664062 193.617188 Z M 183.5625 203.355469 " fill-opacity="1" fill-rule="nonzero"/><path fill="#ff6c37" d="M 165.96875 208.699219 C 163.769531 208.699219 162.039062 206.96875 162.039062 204.769531 C 162.039062 203.671875 162.511719 202.730469 163.140625 201.941406 L 172.722656 192.359375 C 173.351562 191.730469 174.292969 191.730469 174.921875 192.359375 L 184.820312 202.257812 C 185.289062 202.730469 185.449219 203.199219 185.289062 203.828125 C 185.132812 204.300781 184.664062 204.769531 184.035156 204.929688 L 166.753906 208.699219 C 166.4375 208.699219 166.125 208.699219 165.96875 208.699219 Z M 173.824219 195.660156 L 165.339844 204.144531 C 165.027344 204.457031 165.027344 204.769531 165.183594 205.085938 C 165.339844 205.398438 165.652344 205.554688 166.125 205.554688 L 180.578125 202.414062 Z M 173.824219 195.660156 " fill-opacity="1" fill-rule="nonzero"/><path fill="#ff6c37" d="M 279.863281 110.042969 C 279.550781 109.097656 278.449219 108.628906 277.507812 108.941406 C 276.5625 109.257812 276.09375 110.355469 276.40625 111.296875 C 276.40625 111.457031 276.5625 111.613281 276.5625 111.769531 C 277.507812 113.65625 277.191406 116.011719 275.9375 117.738281 C 275.308594 118.523438 275.464844 119.625 276.09375 120.253906 C 276.878906 120.882812 277.976562 120.722656 278.605469 119.9375 C 280.960938 116.953125 281.433594 113.183594 279.863281 110.042969 Z M 279.863281 110.042969 " fill-opacity="1" fill-rule="nonzero"/></svg>