<svg xmlns="http://www.w3.org/2000/svg" xmlns:xlink="http://www.w3.org/1999/xlink" width="500" zoomAndPan="magnify" viewBox="0 0 375 374.999991" height="500" preserveAspectRatio="xMidYMid meet" version="1.0"><defs><clipPath id="8092de50a0"><path d="M 9.480469 28 L 365.730469 28 L 365.730469 346 L 9.480469 346 Z M 9.480469 28 " clip-rule="nonzero"/></clipPath></defs><g clip-path="url(#8092de50a0)"><path fill="#00d8ff" d="M 302.390625 131.695312 C 298.695312 130.421875 294.863281 129.21875 290.921875 128.082031 C 291.570312 125.4375 292.164062 122.828125 292.691406 120.261719 C 301.375 78.121094 295.699219 44.171875 276.316406 32.996094 C 257.730469 22.277344 227.335938 33.453125 196.640625 60.167969 C 193.6875 62.738281 190.730469 65.457031 187.769531 68.304688 C 185.796875 66.421875 183.832031 64.597656 181.867188 62.855469 C 149.695312 34.289062 117.449219 22.253906 98.085938 33.460938 C 79.519531 44.210938 74.023438 76.125 81.835938 116.058594 C 82.589844 119.917969 83.472656 123.855469 84.46875 127.863281 C 79.90625 129.15625 75.5 130.539062 71.285156 132.007812 C 33.566406 145.15625 9.480469 165.765625 9.480469 187.144531 C 9.480469 209.222656 35.339844 231.367188 74.625 244.792969 C 77.722656 245.851562 80.941406 246.855469 84.253906 247.804688 C 83.179688 252.136719 82.242188 256.382812 81.457031 260.523438 C 74.007812 299.765625 79.824219 330.925781 98.34375 341.605469 C 117.46875 352.636719 149.570312 341.296875 180.828125 313.976562 C 183.300781 311.816406 185.777344 309.523438 188.261719 307.125 C 191.480469 310.222656 194.695312 313.160156 197.894531 315.910156 C 228.167969 341.964844 258.074219 352.484375 276.574219 341.773438 C 295.679688 330.714844 301.890625 297.242188 293.828125 256.515625 C 293.214844 253.402344 292.496094 250.226562 291.691406 246.992188 C 293.945312 246.328125 296.160156 245.636719 298.316406 244.921875 C 339.15625 231.390625 365.730469 209.515625 365.730469 187.144531 C 365.730469 165.6875 340.867188 144.941406 302.390625 131.695312 Z M 293.53125 230.476562 C 291.582031 231.121094 289.585938 231.746094 287.546875 232.347656 C 283.039062 218.074219 276.953125 202.898438 269.507812 187.21875 C 276.613281 171.910156 282.464844 156.925781 286.84375 142.746094 C 290.488281 143.800781 294.027344 144.910156 297.433594 146.085938 C 330.402344 157.433594 350.511719 174.214844 350.511719 187.144531 C 350.511719 200.914062 328.792969 218.792969 293.53125 230.476562 Z M 278.898438 259.46875 C 282.464844 277.480469 282.972656 293.761719 280.613281 306.488281 C 278.492188 317.925781 274.222656 325.550781 268.949219 328.605469 C 257.71875 335.101562 233.710938 326.65625 207.820312 304.375 C 204.851562 301.820312 201.859375 299.09375 198.859375 296.207031 C 208.898438 285.226562 218.929688 272.464844 228.722656 258.289062 C 245.945312 256.761719 262.214844 254.261719 276.972656 250.851562 C 277.699219 253.785156 278.34375 256.660156 278.898438 259.46875 Z M 130.933594 327.480469 C 119.964844 331.355469 111.230469 331.464844 105.949219 328.421875 C 94.710938 321.941406 90.039062 296.921875 96.410156 263.359375 C 97.140625 259.519531 98.007812 255.570312 99.011719 251.535156 C 113.605469 254.761719 129.757812 257.082031 147.019531 258.484375 C 156.878906 272.351562 167.199219 285.101562 177.601562 296.265625 C 175.328125 298.460938 173.066406 300.546875 170.8125 302.515625 C 156.992188 314.597656 143.140625 323.171875 130.933594 327.480469 Z M 79.546875 230.394531 C 62.175781 224.457031 47.828125 216.738281 37.996094 208.316406 C 29.160156 200.75 24.699219 193.238281 24.699219 187.144531 C 24.699219 174.171875 44.039062 157.625 76.292969 146.378906 C 80.207031 145.015625 84.304688 143.726562 88.558594 142.519531 C 93.015625 157.019531 98.863281 172.183594 105.917969 187.511719 C 98.769531 203.070312 92.839844 218.476562 88.339844 233.144531 C 85.308594 232.273438 82.371094 231.359375 79.546875 230.394531 Z M 96.769531 113.136719 C 90.078125 78.921875 94.523438 53.109375 105.710938 46.632812 C 117.628906 39.734375 143.984375 49.570312 171.761719 74.234375 C 173.539062 75.8125 175.320312 77.460938 177.105469 79.167969 C 166.757812 90.28125 156.527344 102.9375 146.757812 116.726562 C 130.003906 118.277344 113.964844 120.773438 99.21875 124.113281 C 98.292969 120.382812 97.472656 116.71875 96.769531 113.136719 Z M 250.441406 151.082031 C 246.917969 144.992188 243.296875 139.050781 239.609375 133.265625 C 250.976562 134.703125 261.863281 136.609375 272.09375 138.945312 C 269.023438 148.785156 265.195312 159.074219 260.691406 169.621094 C 257.457031 163.484375 254.039062 157.300781 250.441406 151.082031 Z M 187.773438 90.046875 C 194.792969 97.652344 201.824219 106.140625 208.738281 115.355469 C 201.769531 115.023438 194.71875 114.851562 187.605469 114.851562 C 180.558594 114.851562 173.558594 115.019531 166.632812 115.34375 C 173.554688 106.21875 180.644531 97.738281 187.773438 90.046875 Z M 124.707031 151.1875 C 121.1875 157.292969 117.832031 163.445312 114.652344 169.609375 C 110.21875 159.097656 106.425781 148.761719 103.332031 138.785156 C 113.496094 136.507812 124.332031 134.648438 135.628906 133.238281 C 131.886719 139.074219 128.238281 145.0625 124.707031 151.1875 Z M 135.953125 242.132812 C 124.285156 240.832031 113.28125 239.066406 103.121094 236.855469 C 106.265625 226.695312 110.140625 216.140625 114.667969 205.402344 C 117.855469 211.5625 121.226562 217.71875 124.769531 223.835938 C 128.378906 230.070312 132.117188 236.175781 135.953125 242.132812 Z M 188.195312 285.3125 C 180.984375 277.53125 173.789062 268.921875 166.761719 259.664062 C 173.582031 259.929688 180.539062 260.066406 187.605469 260.066406 C 194.867188 260.066406 202.042969 259.902344 209.109375 259.589844 C 202.171875 269.015625 195.167969 277.636719 188.195312 285.3125 Z M 260.835938 204.855469 C 265.597656 215.710938 269.609375 226.210938 272.796875 236.195312 C 262.46875 238.550781 251.316406 240.449219 239.566406 241.859375 C 243.265625 236 246.914062 229.953125 250.503906 223.730469 C 254.132812 217.4375 257.578125 211.136719 260.835938 204.855469 Z M 237.320312 216.128906 C 231.75 225.785156 226.035156 235.003906 220.230469 243.703125 C 209.65625 244.457031 198.738281 244.847656 187.605469 244.847656 C 176.519531 244.847656 165.734375 244.503906 155.351562 243.828125 C 149.3125 235.015625 143.472656 225.769531 137.9375 216.210938 C 132.421875 206.679688 127.339844 197.066406 122.738281 187.507812 C 127.339844 177.925781 132.40625 168.304688 137.894531 158.789062 L 137.890625 158.789062 C 143.394531 149.25 149.183594 140.050781 155.164062 131.292969 C 165.761719 130.488281 176.625 130.074219 187.605469 130.074219 C 198.632812 130.074219 209.511719 130.492188 220.105469 131.300781 C 225.996094 139.996094 231.746094 149.167969 237.269531 158.707031 C 242.855469 168.355469 247.988281 177.917969 252.628906 187.292969 C 248 196.828125 242.878906 206.484375 237.320312 216.128906 Z M 268.714844 46.179688 C 280.644531 53.058594 285.28125 80.804688 277.789062 117.1875 C 277.308594 119.511719 276.769531 121.875 276.1875 124.269531 C 261.40625 120.859375 245.355469 118.324219 228.554688 116.746094 C 218.765625 102.804688 208.621094 90.132812 198.4375 79.160156 C 201.175781 76.527344 203.910156 74.015625 206.632812 71.648438 C 232.933594 48.757812 257.515625 39.722656 268.714844 46.179688 Z M 187.605469 155.332031 C 205.175781 155.332031 219.417969 169.574219 219.417969 187.144531 C 219.417969 204.710938 205.175781 218.953125 187.605469 218.953125 C 170.035156 218.953125 155.792969 204.710938 155.792969 187.144531 C 155.792969 169.574219 170.035156 155.332031 187.605469 155.332031 Z M 187.605469 155.332031 " fill-opacity="1" fill-rule="nonzero"/></g></svg>