<svg xmlns="http://www.w3.org/2000/svg" xmlns:xlink="http://www.w3.org/1999/xlink" width="500" zoomAndPan="magnify" viewBox="0 0 375 374.999991" height="500" preserveAspectRatio="xMidYMid meet" version="1.0"><path fill="#44a8b3" d="M 98.972656 158.457031 C 110.785156 111.207031 140.316406 87.582031 187.566406 87.582031 C 258.441406 87.582031 267.300781 140.738281 302.738281 149.597656 C 326.363281 155.503906 347.035156 146.644531 364.753906 123.019531 C 352.941406 170.269531 323.410156 193.894531 276.160156 193.894531 C 205.285156 193.894531 196.425781 140.738281 160.988281 131.878906 C 137.363281 125.972656 116.691406 134.832031 98.972656 158.457031 Z M 10.378906 264.769531 C 22.191406 217.519531 51.722656 193.894531 98.972656 193.894531 C 169.847656 193.894531 178.707031 247.050781 214.144531 255.910156 C 237.769531 261.816406 258.441406 252.957031 276.160156 229.332031 C 264.347656 276.582031 234.816406 300.207031 187.566406 300.207031 C 116.691406 300.207031 107.832031 247.050781 72.394531 238.191406 C 48.769531 232.285156 28.097656 241.144531 10.378906 264.769531 Z M 10.378906 264.769531 " fill-opacity="1" fill-rule="nonzero"/></svg>