<svg xmlns="http://www.w3.org/2000/svg" xmlns:xlink="http://www.w3.org/1999/xlink" width="500" zoomAndPan="magnify" viewBox="0 0 375 374.999991" height="500" preserveAspectRatio="xMidYMid meet" version="1.0"><path fill="#0065a9" d="M 346.761719 53.378906 L 276.21875 19.417969 C 275.226562 18.941406 274.207031 18.542969 273.15625 18.222656 C 272.101562 17.902344 271.03125 17.667969 269.945312 17.511719 C 268.855469 17.359375 267.761719 17.289062 266.664062 17.304688 C 265.566406 17.320312 264.472656 17.417969 263.390625 17.605469 C 262.308594 17.789062 261.242188 18.054688 260.203125 18.402344 C 259.160156 18.75 258.148438 19.179688 257.171875 19.683594 C 256.199219 20.1875 255.265625 20.765625 254.378906 21.414062 C 253.492188 22.0625 252.660156 22.773438 251.882812 23.554688 L 20.960938 234.082031 C 20.265625 234.710938 19.640625 235.402344 19.082031 236.15625 C 18.523438 236.90625 18.046875 237.707031 17.644531 238.554688 C 17.246094 239.402344 16.933594 240.277344 16.707031 241.1875 C 16.476562 242.097656 16.34375 243.019531 16.296875 243.953125 C 16.25 244.890625 16.296875 245.820312 16.433594 246.746094 C 16.574219 247.671875 16.800781 248.578125 17.117188 249.460938 C 17.433594 250.339844 17.832031 251.183594 18.3125 251.988281 C 18.796875 252.789062 19.351562 253.539062 19.980469 254.230469 C 20.285156 254.5625 20.59375 254.878906 20.921875 255.175781 L 39.777344 272.300781 C 40.386719 272.859375 41.042969 273.359375 41.738281 273.800781 C 42.4375 274.242188 43.167969 274.621094 43.933594 274.9375 C 44.695312 275.25 45.480469 275.5 46.289062 275.675781 C 47.097656 275.855469 47.914062 275.964844 48.738281 276 C 49.5625 276.035156 50.386719 276 51.207031 275.894531 C 52.027344 275.789062 52.828125 275.613281 53.617188 275.367188 C 54.40625 275.121094 55.167969 274.808594 55.902344 274.429688 C 56.636719 274.050781 57.335938 273.609375 57.992188 273.109375 L 336.140625 62.1875 C 337.191406 61.390625 338.332031 60.753906 339.558594 60.273438 C 340.789062 59.796875 342.058594 59.496094 343.371094 59.371094 C 344.683594 59.246094 345.988281 59.304688 347.285156 59.542969 C 348.582031 59.785156 349.820312 60.199219 351.003906 60.785156 C 352.183594 61.371094 353.261719 62.105469 354.238281 62.996094 C 355.214844 63.882812 356.046875 64.886719 356.742188 66.007812 C 357.4375 67.125 357.96875 68.320312 358.328125 69.589844 C 358.691406 70.855469 358.871094 72.148438 358.871094 73.46875 L 358.871094 72.648438 C 358.871094 71.648438 358.800781 70.652344 358.664062 69.660156 C 358.523438 68.667969 358.3125 67.691406 358.035156 66.726562 C 357.757812 65.765625 357.414062 64.828125 357.007812 63.914062 C 356.597656 63 356.125 62.117188 355.59375 61.269531 C 355.058594 60.421875 354.46875 59.613281 353.824219 58.851562 C 353.175781 58.085938 352.480469 57.367188 351.734375 56.703125 C 350.988281 56.035156 350.195312 55.421875 349.363281 54.867188 C 348.53125 54.308594 347.664062 53.816406 346.761719 53.378906 Z M 346.761719 53.378906 " fill-opacity="1" fill-rule="nonzero"/><path fill="#007acc" d="M 346.761719 321.800781 L 276.21875 355.777344 C 275.226562 356.253906 274.207031 356.648438 273.152344 356.96875 C 272.101562 357.285156 271.03125 357.523438 269.945312 357.675781 C 268.855469 357.828125 267.761719 357.898438 266.664062 357.882812 C 265.566406 357.867188 264.476562 357.765625 263.390625 357.582031 C 262.308594 357.398438 261.246094 357.132812 260.203125 356.785156 C 259.160156 356.4375 258.152344 356.011719 257.175781 355.507812 C 256.199219 355.003906 255.269531 354.425781 254.378906 353.777344 C 253.492188 353.128906 252.660156 352.417969 251.882812 351.640625 L 20.960938 141.101562 C 20.265625 140.472656 19.640625 139.78125 19.082031 139.027344 C 18.523438 138.273438 18.046875 137.476562 17.644531 136.628906 C 17.246094 135.78125 16.933594 134.902344 16.707031 133.996094 C 16.476562 133.085938 16.34375 132.164062 16.296875 131.226562 C 16.25 130.292969 16.296875 129.363281 16.433594 128.433594 C 16.574219 127.507812 16.800781 126.605469 17.117188 125.722656 C 17.433594 124.839844 17.832031 124 18.3125 123.195312 C 18.796875 122.394531 19.351562 121.644531 19.980469 120.949219 C 20.285156 120.621094 20.59375 120.300781 20.921875 120.007812 L 39.777344 102.878906 C 40.386719 102.320312 41.042969 101.820312 41.742188 101.375 C 42.441406 100.933594 43.175781 100.550781 43.941406 100.234375 C 44.707031 99.917969 45.492188 99.671875 46.300781 99.492188 C 47.109375 99.3125 47.929688 99.203125 48.757812 99.167969 C 49.582031 99.128906 50.410156 99.164062 51.230469 99.273438 C 52.050781 99.378906 52.855469 99.558594 53.648438 99.804688 C 54.4375 100.054688 55.203125 100.367188 55.9375 100.75 C 56.671875 101.128906 57.371094 101.570312 58.027344 102.074219 L 336.140625 312.992188 C 337.191406 313.789062 338.332031 314.429688 339.558594 314.90625 C 340.789062 315.386719 342.058594 315.6875 343.371094 315.8125 C 344.683594 315.9375 345.988281 315.878906 347.285156 315.636719 C 348.582031 315.398438 349.820312 314.984375 351.003906 314.398438 C 352.183594 313.8125 353.261719 313.074219 354.238281 312.1875 C 355.214844 311.300781 356.046875 310.296875 356.742188 309.175781 C 357.4375 308.054688 357.96875 306.863281 358.328125 305.59375 C 358.691406 304.324219 358.871094 303.03125 358.871094 301.714844 L 358.871094 302.59375 C 358.871094 303.59375 358.796875 304.585938 358.652344 305.574219 C 358.511719 306.566406 358.300781 307.539062 358.023438 308.496094 C 357.742188 309.457031 357.398438 310.390625 356.988281 311.304688 C 356.578125 312.214844 356.109375 313.09375 355.574219 313.9375 C 355.042969 314.78125 354.453125 315.585938 353.808594 316.347656 C 353.160156 317.109375 352.464844 317.824219 351.722656 318.488281 C 350.976562 319.15625 350.1875 319.765625 349.355469 320.320312 C 348.527344 320.875 347.660156 321.367188 346.761719 321.800781 Z M 346.761719 321.800781 " fill-opacity="1" fill-rule="nonzero"/><path fill="#1f9cf0" d="M 276.21875 355.777344 C 275.226562 356.253906 274.207031 356.648438 273.152344 356.96875 C 272.101562 357.285156 271.03125 357.523438 269.945312 357.675781 C 268.855469 357.828125 267.761719 357.898438 266.664062 357.882812 C 265.566406 357.867188 264.476562 357.765625 263.390625 357.582031 C 262.308594 357.398438 261.246094 357.132812 260.203125 356.785156 C 259.160156 356.4375 258.152344 356.011719 257.175781 355.507812 C 256.199219 355.003906 255.269531 354.425781 254.378906 353.777344 C 253.492188 353.128906 252.660156 352.417969 251.882812 351.640625 C 252.761719 352.507812 253.746094 353.230469 254.835938 353.808594 C 255.929688 354.382812 257.082031 354.789062 258.292969 355.023438 C 259.503906 355.261719 260.722656 355.316406 261.953125 355.195312 C 263.179688 355.070312 264.363281 354.769531 265.503906 354.296875 C 266.644531 353.824219 267.691406 353.195312 268.644531 352.414062 C 269.597656 351.628906 270.417969 350.726562 271.105469 349.699219 C 271.792969 348.675781 272.320312 347.574219 272.679688 346.394531 C 273.042969 345.214844 273.226562 344.007812 273.230469 342.773438 L 273.230469 32.410156 C 273.234375 31.171875 273.054688 29.957031 272.695312 28.769531 C 272.335938 27.582031 271.8125 26.472656 271.121094 25.441406 C 270.433594 24.410156 269.609375 23.503906 268.652344 22.714844 C 267.695312 21.929688 266.640625 21.300781 265.496094 20.824219 C 264.351562 20.351562 263.160156 20.054688 261.925781 19.933594 C 260.691406 19.8125 259.464844 19.871094 258.25 20.113281 C 257.035156 20.359375 255.878906 20.773438 254.785156 21.355469 C 253.695312 21.941406 252.710938 22.675781 251.832031 23.554688 C 252.609375 22.777344 253.441406 22.0625 254.328125 21.414062 C 255.21875 20.765625 256.148438 20.1875 257.125 19.683594 C 258.101562 19.179688 259.109375 18.75 260.152344 18.402344 C 261.195312 18.054688 262.257812 17.789062 263.339844 17.601562 C 264.421875 17.417969 265.515625 17.316406 266.613281 17.300781 C 267.710938 17.285156 268.804688 17.355469 269.894531 17.507812 C 270.984375 17.660156 272.050781 17.894531 273.105469 18.214844 C 274.15625 18.53125 275.175781 18.929688 276.167969 19.40625 L 346.699219 53.320312 C 347.605469 53.75 348.476562 54.246094 349.3125 54.800781 C 350.148438 55.355469 350.941406 55.964844 351.691406 56.628906 C 352.441406 57.296875 353.140625 58.011719 353.789062 58.777344 C 354.4375 59.542969 355.03125 60.347656 355.566406 61.195312 C 356.101562 62.042969 356.578125 62.925781 356.988281 63.839844 C 357.398438 64.757812 357.746094 65.695312 358.023438 66.660156 C 358.304688 67.621094 358.515625 68.601562 358.65625 69.59375 C 358.800781 70.585938 358.871094 71.585938 358.871094 72.589844 L 358.871094 302.59375 C 358.871094 303.597656 358.804688 304.59375 358.664062 305.585938 C 358.523438 306.578125 358.3125 307.558594 358.035156 308.519531 C 357.757812 309.484375 357.414062 310.421875 357.003906 311.339844 C 356.597656 312.253906 356.125 313.136719 355.589844 313.984375 C 355.058594 314.832031 354.46875 315.640625 353.820312 316.40625 C 353.171875 317.171875 352.476562 317.886719 351.726562 318.554688 C 350.980469 319.222656 350.1875 319.832031 349.355469 320.390625 C 348.519531 320.945312 347.652344 321.441406 346.75 321.875 Z M 276.21875 355.777344 " fill-opacity="1" fill-rule="nonzero"/></svg>